<?xml version="1.0" encoding="utf-8"?>
<!-- Generator: Adobe Illustrator 26.0.3, SVG Export Plug-In . SVG Version: 6.00 Build 0)  -->
<svg version="1.1" id="Layer_1" xmlns="http://www.w3.org/2000/svg" xmlns:xlink="http://www.w3.org/1999/xlink" x="0px" y="0px"
	 viewBox="0 0 19.1 21.8" style="enable-background:new 0 0 19.1 21.8;" xml:space="preserve">
<style type="text/css">
	.st0{fill:#D60C03;}
</style>
<path id="Icon_awesome-calendar-alt" class="st0" d="M0,19.8c0,1.1,0.9,2,2,2h15c1.1,0,2.1-0.9,2.1-2c0,0,0,0,0,0V8.2H0V19.8z
	 M13.6,11.4c0-0.3,0.2-0.5,0.5-0.5h1.7c0.3,0,0.5,0.2,0.5,0.5v1.7c0,0.3-0.2,0.5-0.5,0.5h-1.7c-0.3,0-0.5-0.2-0.5-0.5L13.6,11.4z
	 M13.6,16.9c0-0.3,0.2-0.5,0.5-0.5h1.7c0.3,0,0.5,0.2,0.5,0.5v1.7c0,0.3-0.2,0.5-0.5,0.5h-1.7c-0.3,0-0.5-0.2-0.5-0.5L13.6,16.9z
	 M8.2,11.4c0-0.3,0.2-0.5,0.5-0.5h1.7c0.3,0,0.5,0.2,0.5,0.5v1.7c0,0.3-0.2,0.5-0.5,0.5H8.7c-0.3,0-0.5-0.2-0.5-0.5L8.2,11.4z
	 M8.2,16.9c0-0.3,0.2-0.5,0.5-0.5h1.7c0.3,0,0.5,0.2,0.5,0.5v1.7c0,0.3-0.2,0.5-0.5,0.5H8.7c-0.3,0-0.5-0.2-0.5-0.5L8.2,16.9z
	 M2.7,11.4c0-0.3,0.2-0.5,0.5-0.5h1.7c0.3,0,0.5,0.2,0.5,0.5v1.7c0,0.3-0.2,0.5-0.5,0.5H3.2c-0.3,0-0.5-0.2-0.5-0.5V11.4z M2.7,16.9
	c0-0.3,0.2-0.5,0.5-0.5h1.7c0.3,0,0.5,0.2,0.5,0.5v1.7c0,0.3-0.2,0.5-0.5,0.5H3.2c-0.3,0-0.5-0.2-0.5-0.5V16.9z M17.1,2.7H15v-2
	C15,0.3,14.7,0,14.3,0H13c-0.4,0-0.7,0.3-0.7,0.7v2H6.8v-2C6.8,0.3,6.5,0,6.1,0H4.8C4.4,0,4.1,0.3,4.1,0.7v2H2c-1.1,0-2,0.9-2,2v2
	h19.1v-2C19.1,3.6,18.2,2.7,17.1,2.7C17.1,2.7,17.1,2.7,17.1,2.7z"/>
</svg>
