<?xml version="1.0" encoding="utf-8"?>
<!-- Generator: Adobe Illustrator 26.0.3, SVG Export Plug-In . SVG Version: 6.00 Build 0)  -->
<svg version="1.1" id="Layer_1" xmlns="http://www.w3.org/2000/svg" xmlns:xlink="http://www.w3.org/1999/xlink" x="0px" y="0px"
	 viewBox="0 0 35.4 35.4" style="enable-background:new 0 0 35.4 35.4;" xml:space="preserve">
<style type="text/css">
	.st0{fill:#0080FF;}
	.st1{fill:#FFFFFF;}
</style>
<g>
	<g>
		<path class="st0" d="M35.4,17.7C35.4,7.9,27.5,0,17.7,0S0,7.9,0,17.7c0,8.8,6.5,16.1,14.9,17.5V22.8h-4.5v-5.1h4.5v-3.9
			c0-4.4,2.6-6.9,6.7-6.9c1.9,0,4,0.3,4,0.3v4.4h-2.2c-2.2,0-2.9,1.4-2.9,2.8v3.3h4.9l-0.8,5.1h-4.1v12.4
			C28.9,33.8,35.4,26.5,35.4,17.7z"/>
		<path class="st1" d="M24.6,22.8l0.8-5.1h-4.9v-3.3c0-1.4,0.7-2.8,2.9-2.8h2.2V7.3c0,0-2-0.3-4-0.3c-4,0-6.7,2.4-6.7,6.9v3.9h-4.5
			v5.1h4.5v12.4c0.9,0.1,1.8,0.2,2.8,0.2s1.9-0.1,2.8-0.2V22.8H24.6z"/>
	</g>
</g>
</svg>
