<?xml version="1.0" encoding="utf-8"?>
<!-- Generator: Adobe Illustrator 26.0.3, SVG Export Plug-In . SVG Version: 6.00 Build 0)  -->
<svg version="1.1" id="Layer_1" xmlns="http://www.w3.org/2000/svg" xmlns:xlink="http://www.w3.org/1999/xlink" x="0px" y="0px"
	 viewBox="0 0 307 56.9" style="enable-background:new 0 0 307 56.9;" xml:space="preserve">
<style type="text/css">
	.st0{fill:#D60C03;}
	.st1{fill:#FFFFFF;}
</style>
<g id="Group_5">
	<g>
		<g id="Group_4">
			<path id="Path_3" class="st0" d="M59.7,25.9v3.4c-0.1,0.7-0.2,1.5-0.3,2.2c-0.8,6-3.6,11.5-8,15.7c-3.8,3.8-8.6,6.3-13.9,7.3
				c-0.3,0.1-0.7,0.1-1,0.2c-0.1-1.1-0.1-2.2-0.2-3.4c4.5-0.8,8.8-2.9,12.2-6c-1.1-0.9-1-2-0.6-3.2c0.1-0.2,0.1-0.4,0.2-0.6
				c0.2-0.8,0-1.1-0.7-1.5c-0.1,0-0.3-0.1-0.4-0.2c-0.4-0.2-1-0.4-1.1-0.8c-0.2-0.7-0.1-1.5,0.5-2c0.4-0.4,0.8-0.7,1.3-1
				c1.1-0.7,1.2-1.4,0.4-2.4c-0.5-0.8-1.4-1.2-2.3-1.2c-1.1,0-2.2-0.3-3.1-0.9c-0.8-0.5-1.2-1.3-1.1-2.2c0.2-1.3-0.5-2.5-1.7-3
				c-0.6-0.3-1.2-0.5-1.8-0.8c-1.3-0.3-2-1.7-1.7-2.9l0,0c0.2-1.7,1.3-3.1,2.8-3.7c1.5-0.5,2.8-1.3,4-2.3c1.2-0.9,1.8-2.2,1.8-3.7
				c-0.1-1.2-0.4-2.4-0.8-3.6c-0.2-0.8-0.6-1.5-1.1-2.2C42.4,6,41.3,5.2,40,4.8c-2.6-0.8-5.2-1.5-8-1.1c-0.7,0.1-1.5,0.3-2.2,0.6
				C29.3,4.5,29,5,29.2,5.5c0,0.1,0.1,0.3,0.2,0.4c0.4,0.5,0.8,0.9,1.3,1.2C31.8,7.7,33,8.2,34,8.8c0.5,0.2,0.9,0.5,1.4,0.9
				s0.7,1.1,0.4,1.6c-0.1,0.1-0.2,0.3-0.4,0.4c-0.7,0.6-1.5,1.1-2.3,1.6c-0.6,0.4-1.2,0.9-1.7,1.4c-0.6,0.4-0.7,1.2-0.3,1.8
				c0.2,0.2,0.4,0.4,0.7,0.5c0.6,0.1,0.9,0.7,0.8,1.2v0.1c-0.1,1.2-0.7,2.3-1.4,3.1c-0.9,1-1.7,1-2.7,0c-0.9-0.8-1.8-1.7-2.8-2.5
				c-0.8-0.6-1.9-0.9-2.9-0.9c-1.4,0.1-2.6,0.9-3.1,2.2c-0.5,0.9-0.4,2.1,0.4,2.9c0.4,0.5,1.1,0.8,1.7,0.6c0.6-0.1,1.2-0.3,1.8-0.5
				c1-0.2,1.5,0.1,1.7,1.1c0.2,0.8,0.3,1.6,0.4,2.5c0,2,1.4,3.8,3.4,4.4c0.9,0.3,1.7,0.7,2.5,1.2c-0.6,0.2-1.2,0.3-1.8,0.5
				c-1.7,0.6-3.5,1.1-5.2,1.7c-0.4,0.2-0.9,0.2-1.4,0.1c-0.6-0.2-1.2-0.3-1.9-0.5c0.5-0.4,0.9-0.6,1.3-1c0.7-0.5,1.2-1.3,1.2-2.1
				c0-1-0.6-1.8-1.5-2.1c-1.4-0.5-2.7-1-4.1-1.4c-2.7-0.9-4.9-3-5.9-5.7c-0.7-1.5-1.1-3.2-1.2-4.8c0-0.2-0.1-0.4-0.1-0.6
				C8.6,21,7.8,26.1,8.5,31l-3.4,0.7c-0.1-1.5-0.2-3-0.2-4.5C5,15.4,12.7,5,23.9,1.4c10.1-3.1,19.2-1,27,6c4.6,4.2,7.7,9.9,8.5,16.1
				C59.5,24.4,59.6,25.1,59.7,25.9"/>
			<path id="Path_4" class="st0" d="M40.7,40.2c-1.4,1.4-3,2.5-4.7,3.3c-5.6,2.7-11.4,4.8-17.5,6.4c-4.3,1.2-8.7,2.1-13,3.1
				c-1,0.3-2.1,0.2-3.2-0.1c-0.7-0.1-1.2-0.8-1.1-1.5c0-0.3,0.2-0.7,0.5-0.9c0.3-0.3,0.6-0.6,0.9-0.8C1.7,48.1,0.8,46.5,0,45v-0.6
				c0.9-1.1,2.4-1.4,3.6-0.7c1.3,0.7,2.5,1.3,3.8,2c0.3,0.2,0.7,0.2,1,0c1.6-0.9,3.2-1.7,4.7-2.6c0.1-0.1,0.3-0.2,0.5-0.3
				c-0.2-0.1-0.4-0.3-0.5-0.4c-2.6-1.7-5.1-3.3-7.7-5c-1.1-0.7-1.1-1.5,0-2.3c1.4-1,3.2-1.2,4.8-0.7c4.4,1.2,8.9,2.4,13.3,3.5
				c0.4,0.1,0.8,0.1,1.2-0.1c2.6-1.1,5.4-1.9,8.2-2.5c1.2-0.2,2.5-0.2,3.8-0.3c0,0.1,0,0.1,0,0.2l-2.2,1l-0.8,0.4
				c-1.2,0.5-1.2,0.5-1.1,1.9c0.2-0.1,0.4-0.2,0.6-0.3l5.3-2.4c1.3-0.5,2.7,0.1,3.1,1.4c0,0.1,0.1,0.2,0.1,0.3
				C41.8,38.5,41.4,39.5,40.7,40.2"/>
			<path id="Path_5" class="st0" d="M31.3,56.6c-0.2,0.1-0.4,0.2-0.6,0.3h-0.5c-0.3-0.2-0.6-0.4-0.8-0.6c-1.7-1.9-3.3-3.7-4.9-5.6
				c-0.6-0.6-0.5-1,0.4-1.3c2.3-0.8,4.6-1.6,7-2.4c0.8-0.3,1-0.1,1.1,0.7c0.2,1.7,0.4,3.4,0.6,5.1C33.8,54.4,32.9,56.1,31.3,56.6"/>
		</g>
	</g>
</g>
<g>
	<path class="st1" d="M79.8,42.4c-2.4,0-3.7-1.4-3.7-4V23.2c0-2.6,1.3-4,3.7-4h8.3c5.4,0,8.4,2.1,8.4,5.8c0,2.7-1.5,4.2-4.2,4.8
		c3.5,0.8,5.1,3,5.1,5.8c0,4.7-3,6.7-10.1,6.7h-7.5V42.4z M83.2,28.8h2.9c2.1,0,3.2-0.9,3.2-2.5c0-1.5-1-2.3-3-2.3h-3L83.2,28.8
		L83.2,28.8z M83.2,37.6h3.3c2.5,0,3.5-0.8,3.5-2.7c0-1.8-1.1-2.5-3.6-2.5h-3.3L83.2,37.6L83.2,37.6z"/>
	<path class="st1" d="M98.8,30.8c0-7.1,5.2-12.1,12.3-12.1c7.1,0,12.2,5,12.2,12.1s-5.1,12.1-12.2,12.1
		C103.8,42.9,98.8,37.9,98.8,30.8z M116.1,30.8c0-3.4-2-5.8-5.1-5.8c-3.2,0-5.2,2.2-5.2,5.7c0,3.4,2,5.7,5.2,5.7
		C114.1,36.5,116.1,34.3,116.1,30.8z"/>
	<path class="st1" d="M128.5,42.6c-2,0-3-1.1-3-3.3V22.4c0-2.2,1.1-3.3,2.9-3.3h0.7c1.7,0,2.2,0.5,3.2,1.7l8.3,10.8v-9.2
		c0-2.2,1-3.3,3.1-3.3h0.6c2,0,3,1.1,3,3.3v16.9c0,2.2-1.1,3.3-2.9,3.3h-0.6c-1.7,0-2.2-0.4-3.2-1.6l-8.5-11v9.2
		c0,2.2-1.1,3.3-3.1,3.3L128.5,42.6L128.5,42.6z"/>
	<path class="st1" d="M171.2,39.9l-7.9-18.4c-0.3-0.7,2.1-2.5,4.4-2.5c1.8,0,3.4,1.3,4,3.3l3.6,11.2l3.6-11.2
		c0.7-2.3,2.3-3.3,3.8-3.3c2.3,0,4.6,1.8,4.3,2.5l-7.6,18.4c-0.8,1.9-2,2.7-4.2,2.7S172.1,41.9,171.2,39.9z"/>
	<path class="st1" d="M187.9,30.8c0-7.1,5.2-12.1,12.3-12.1s12.2,5,12.2,12.1s-5.1,12.1-12.2,12.1C192.9,42.9,187.9,37.9,187.9,30.8
		z M205.2,30.8c0-3.4-2-5.8-5.1-5.8c-3.2,0-5.2,2.2-5.2,5.7c0,3.4,2,5.7,5.2,5.7C203.2,36.5,205.2,34.3,205.2,30.8z"/>
	<path class="st1" d="M223.8,42.6c-2,0-3-1.1-3-3.3v-5.9l-8.1-11.5c-0.2-0.4,1-2.7,4.7-2.7c1.2,0,2.4,0.7,3.4,2.5l3.6,6.1l3.7-6.1
		c1.1-1.8,2.2-2.5,3.4-2.5c3.3,0,4.7,2.4,4.4,2.7l-8,11.5v5.9c0,2.2-1.1,3.3-3.1,3.3H223.8z"/>
	<path class="st1" d="M235.7,40.5l7.5-19.5c0.4-1.1,1.3-2,4.6-2s4.1,0.8,4.4,2l7.8,19.4c0.2,0.6-1.7,2.3-3.9,2.3
		c-1.5,0-3.1-0.8-4.1-3.4l-0.7-1.7H244l-0.7,1.8c-0.9,2.5-2.4,3.3-3.9,3.3C237.5,42.7,235.4,41.2,235.7,40.5z M245.2,32.5h5
		l-2.5-6.7L245.2,32.5z"/>
	<path class="st1" d="M282.3,29.1c2.1,0,2.5,1,2.5,3v9.7c0,0.2-1.1,0.7-2.4,0.7s-2.7-0.5-3.3-2.5c-0.1-0.2-0.1-0.4-0.2-0.6
		c-1.2,2-3.5,3.3-6.9,3.3c-6.4,0-10.9-5.1-10.9-12c0-7.1,5.1-12.1,12.7-12.1c2.9,0,5.2,0.6,6.7,1.5c1.6,0.9,2.4,2.3,2.4,3.8
		c0,2.6-3.4,3.5-3.6,3.3c-1.3-1.6-3.2-2.5-5.2-2.5c-3.3,0-5.9,2.5-5.9,6.3s2.3,6.3,5.6,6.3c2,0,3.6-0.9,4.2-2.3
		c0.1-0.2,0.1-0.5,0.2-0.8H276c-2.3,0-3.4-0.5-3.4-2.5v-0.3c0-2,1.1-2.5,3.4-2.5h6.3V29.1z"/>
	<path class="st1" d="M291.2,42.4c-2.4,0-3.7-1.3-3.7-3.9V23.2c0-2.6,1.3-4,3.7-4h12.3c2.3,0,3.3,0.9,3.3,2.8v0.2c0,2-1,2.8-3.3,2.8
		h-8.8v3h5.9c2.4,0,3.3,0.8,3.3,2.5v0.1c0,1.9-1,2.7-3.3,2.7h-5.9v3.4h9c2.3,0,3.3,0.7,3.3,2.6v0.2c0,2-1,2.9-3.3,2.9H291.2z"/>
</g>
</svg>
