<?xml version="1.0" encoding="utf-8"?>
<!-- Generator: Adobe Illustrator 26.0.3, SVG Export Plug-In . SVG Version: 6.00 Build 0)  -->
<svg version="1.1" id="Layer_1" xmlns="http://www.w3.org/2000/svg" xmlns:xlink="http://www.w3.org/1999/xlink" x="0px" y="0px"
	 viewBox="0 0 16.8 24" style="enable-background:new 0 0 16.8 24;" xml:space="preserve">
<style type="text/css">
	.st0{fill:#D60C03;}
</style>
<path id="Icon_material-location-on" class="st0" d="M8.4,0C3.8,0,0,3.7,0,8.4c0,0,0,0,0,0C0,14.7,8.4,24,8.4,24s8.4-9.3,8.4-15.6
	C16.8,3.8,13,0,8.4,0C8.4,0,8.4,0,8.4,0z M8.4,11.4c-1.7,0-3-1.3-3-3s1.3-3,3-3s3,1.3,3,3S10,11.4,8.4,11.4z"/>
<path id="Icon_material-location-on_00000167390095010983539950000013916707088712431232_" class="st0" d="M8.4,0C3.8,0,0,3.7,0,8.4
	c0,0,0,0,0,0C0,14.7,8.4,24,8.4,24s8.4-9.3,8.4-15.6C16.8,3.8,13,0,8.4,0C8.4,0,8.4,0,8.4,0z M8.4,11.4c-1.7,0-3-1.3-3-3s1.3-3,3-3
	s3,1.3,3,3S10,11.4,8.4,11.4z"/>
</svg>
