<?xml version="1.0" encoding="utf-8"?>
<!-- Generator: Adobe Illustrator 26.0.3, SVG Export Plug-In . SVG Version: 6.00 Build 0)  -->
<svg version="1.1" id="Layer_1" xmlns="http://www.w3.org/2000/svg" xmlns:xlink="http://www.w3.org/1999/xlink" x="0px" y="0px"
	 viewBox="0 0 293.2 56.9" style="enable-background:new 0 0 293.2 56.9;" xml:space="preserve">
<style type="text/css">
	.st0{fill:#D60C03;}
</style>
<g>
	<g id="Group_5">
		<g>
			<g id="Group_4">
				<path id="Path_3" class="st0" d="M59.7,25.9v3.4c-0.1,0.7-0.2,1.5-0.3,2.2c-0.8,6-3.6,11.5-8,15.7c-3.8,3.8-8.6,6.3-13.9,7.3
					c-0.3,0.1-0.7,0.1-1,0.2c-0.1-1.1-0.1-2.2-0.2-3.4c4.5-0.8,8.8-2.9,12.2-6c-1.1-0.9-1-2-0.6-3.2c0.1-0.2,0.1-0.4,0.2-0.6
					c0.2-0.8,0-1.1-0.7-1.5c-0.1,0-0.3-0.1-0.4-0.2c-0.4-0.2-1-0.4-1.1-0.8c-0.2-0.7-0.1-1.5,0.5-2c0.4-0.4,0.8-0.7,1.3-1
					c1.1-0.7,1.2-1.4,0.4-2.4c-0.5-0.8-1.4-1.2-2.3-1.2c-1.1,0-2.2-0.3-3.1-0.9c-0.8-0.5-1.2-1.3-1.1-2.2c0.2-1.3-0.5-2.5-1.7-3
					c-0.6-0.3-1.2-0.5-1.8-0.8c-1.3-0.3-2-1.7-1.7-2.9l0,0c0.2-1.7,1.3-3.1,2.8-3.7c1.5-0.5,2.8-1.3,4-2.3c1.2-0.9,1.8-2.2,1.8-3.7
					c-0.1-1.2-0.4-2.4-0.8-3.6c-0.2-0.8-0.6-1.5-1.1-2.2C42.4,6,41.3,5.2,40,4.8c-2.6-0.8-5.2-1.5-8-1.1c-0.7,0.1-1.5,0.3-2.2,0.6
					C29.3,4.5,29,5,29.2,5.5c0,0.1,0.1,0.3,0.2,0.4c0.4,0.5,0.8,0.9,1.3,1.2C31.8,7.7,33,8.2,34,8.8c0.5,0.2,0.9,0.5,1.4,0.9
					s0.7,1.1,0.4,1.6c-0.1,0.1-0.2,0.3-0.4,0.4c-0.7,0.6-1.5,1.1-2.3,1.6c-0.6,0.4-1.2,0.9-1.7,1.4c-0.6,0.4-0.7,1.2-0.3,1.8
					c0.2,0.2,0.4,0.4,0.7,0.5c0.6,0.1,0.9,0.7,0.8,1.2v0.1c-0.1,1.2-0.7,2.3-1.4,3.1c-0.9,1-1.7,1-2.7,0c-0.9-0.8-1.8-1.7-2.8-2.5
					c-0.8-0.6-1.9-0.9-2.9-0.9c-1.4,0.1-2.6,0.9-3.1,2.2c-0.5,0.9-0.4,2.1,0.4,2.9c0.4,0.5,1.1,0.8,1.7,0.6c0.6-0.1,1.2-0.3,1.8-0.5
					c1-0.2,1.5,0.1,1.7,1.1c0.2,0.8,0.3,1.6,0.4,2.5c0,2,1.4,3.8,3.4,4.4c0.9,0.3,1.7,0.7,2.5,1.2c-0.6,0.2-1.2,0.3-1.8,0.5
					c-1.7,0.6-3.5,1.1-5.2,1.7c-0.4,0.2-0.9,0.2-1.4,0.1c-0.6-0.2-1.2-0.3-1.9-0.5c0.5-0.4,0.9-0.6,1.3-1c0.7-0.5,1.2-1.3,1.2-2.1
					c0-1-0.6-1.8-1.5-2.1c-1.4-0.5-2.7-1-4.1-1.4c-2.7-0.9-4.9-3-5.9-5.7c-0.7-1.5-1.1-3.2-1.2-4.8c0-0.2-0.1-0.4-0.1-0.6
					C8.6,21,7.8,26.1,8.5,31l-3.4,0.7c-0.1-1.5-0.2-3-0.2-4.5C5,15.4,12.7,5,23.9,1.4c10.1-3.1,19.2-1,27,6
					c4.6,4.2,7.7,9.9,8.5,16.1C59.5,24.4,59.6,25.1,59.7,25.9"/>
				<path id="Path_4" class="st0" d="M40.7,40.2c-1.4,1.4-3,2.5-4.7,3.3c-5.6,2.7-11.4,4.8-17.5,6.4c-4.3,1.2-8.7,2.1-13,3.1
					c-1,0.3-2.1,0.2-3.2-0.1c-0.7-0.1-1.2-0.8-1.1-1.5c0-0.3,0.2-0.7,0.5-0.9c0.3-0.3,0.6-0.6,0.9-0.8C1.7,48.1,0.8,46.5,0,45v-0.6
					c0.9-1.1,2.4-1.4,3.6-0.7c1.3,0.7,2.5,1.3,3.8,2c0.3,0.2,0.7,0.2,1,0c1.6-0.9,3.2-1.7,4.7-2.6c0.1-0.1,0.3-0.2,0.5-0.3
					c-0.2-0.1-0.4-0.3-0.5-0.4c-2.6-1.7-5.1-3.3-7.7-5c-1.1-0.7-1.1-1.5,0-2.3c1.4-1,3.2-1.2,4.8-0.7c4.4,1.2,8.9,2.4,13.3,3.5
					c0.4,0.1,0.8,0.1,1.2-0.1c2.6-1.1,5.4-1.9,8.2-2.5c1.2-0.2,2.5-0.2,3.8-0.3c0,0.1,0,0.1,0,0.2l-2.2,1l-0.8,0.4
					c-1.2,0.5-1.2,0.5-1.1,1.9c0.2-0.1,0.4-0.2,0.6-0.3l5.3-2.4c1.3-0.5,2.7,0.1,3.1,1.4c0,0.1,0.1,0.2,0.1,0.3
					C41.8,38.5,41.4,39.5,40.7,40.2"/>
				<path id="Path_5" class="st0" d="M31.3,56.6c-0.2,0.1-0.4,0.2-0.6,0.3h-0.5c-0.3-0.2-0.6-0.4-0.8-0.6c-1.7-1.9-3.3-3.7-4.9-5.6
					c-0.6-0.6-0.5-1,0.4-1.3c2.3-0.8,4.6-1.6,7-2.4c0.8-0.3,1-0.1,1.1,0.7c0.2,1.7,0.4,3.4,0.6,5.1C33.8,54.4,32.9,56.1,31.3,56.6"
					/>
			</g>
		</g>
	</g>
	<g>
		<path d="M73.7,41.3c-2.3,0-3.6-1.4-3.6-4V22.2c0-2.6,1.3-4,3.6-4H82c5.4,0,8.3,2.1,8.3,5.8c0,2.7-1.5,4.2-4.2,4.8
			c3.5,0.8,5,3,5,5.8c0,4.6-3,6.7-10,6.7H73.7z M77,27.8h2.8c2.1,0,3.1-0.9,3.1-2.5c0-1.5-1-2.3-3-2.3h-3L77,27.8L77,27.8z M77,36.5
			h3.3c2.5,0,3.5-0.8,3.5-2.6c0-1.7-1.1-2.5-3.6-2.5H77V36.5z"/>
		<path d="M92.5,29.8c0-7,5.1-12,12.2-12s12.1,5,12.1,12s-5.1,12-12.1,12C97.5,41.8,92.5,36.8,92.5,29.8z M109.7,29.8
			c0-3.4-2-5.7-5.1-5.7s-5.1,2.2-5.1,5.7c0,3.4,2,5.7,5.1,5.7C107.7,35.4,109.7,33.2,109.7,29.8z"/>
		<path d="M122,41.5c-2,0-3-1.1-3-3.3V21.4c0-2.2,1.1-3.3,2.9-3.3h0.7c1.7,0,2.2,0.5,3.2,1.7l8.3,10.7v-9.1c0-2.2,1-3.3,3.1-3.3h0.6
			c2,0,3,1.1,3,3.3v16.8c0,2.2-1.1,3.3-2.9,3.3h-0.6c-1.7,0-2.2-0.4-3.1-1.6L125.7,29v9.2c0,2.2-1.1,3.3-3.1,3.3H122z"/>
		<path d="M158.4,38.8l-7.8-18.3c-0.3-0.7,2.1-2.5,4.4-2.5c1.8,0,3.3,1.3,3.9,3.3l3.6,11.1l3.6-11.1c0.7-2.3,2.2-3.3,3.8-3.3
			c2.3,0,4.5,1.8,4.2,2.5l-7.6,18.3c-0.8,1.9-2,2.7-4.1,2.7C160.4,41.5,159.3,40.8,158.4,38.8z"/>
		<path d="M175,29.8c0-7,5.1-12,12.2-12c7.1,0,12.1,5,12.1,12s-5.1,12-12.1,12C180,41.8,175,36.8,175,29.8z M192.2,29.8
			c0-3.4-2-5.7-5.1-5.7s-5.1,2.2-5.1,5.7c0,3.4,2,5.7,5.1,5.7C190.2,35.4,192.2,33.2,192.2,29.8z"/>
		<path d="M210.7,41.5c-2,0-3-1.1-3-3.3v-5.9l-8-11.4c-0.2-0.4,1-2.7,4.7-2.7c1.2,0,2.4,0.7,3.3,2.5l3.6,6.1l3.7-6.1
			c1.1-1.8,2.2-2.5,3.4-2.5c3.3,0,4.6,2.4,4.4,2.7l-7.9,11.4v5.9c0,2.2-1.1,3.3-3.1,3.3H210.7z"/>
		<path d="M222.5,39.4L230,20c0.4-1.1,1.3-2,4.5-2s4.1,0.8,4.4,2l7.8,19.3c0.2,0.6-1.7,2.2-3.8,2.2c-1.5,0-3.1-0.8-4.1-3.3l-0.7-1.7
			h-7.4l-0.7,1.8c-0.9,2.5-2.4,3.3-3.9,3.3C224.2,41.6,222.2,40,222.5,39.4z M231.9,31.4h4.9l-2.5-6.6L231.9,31.4z"/>
		<path d="M268.8,28.1c2.1,0,2.5,1,2.5,3v9.6c0,0.2-1.1,0.7-2.4,0.7s-2.7-0.5-3.3-2.5c-0.1-0.2-0.1-0.4-0.2-0.6
			c-1.2,2-3.5,3.3-6.9,3.3c-6.4,0-10.8-5-10.8-11.9c0-7,5-12,12.6-12c2.9,0,5.2,0.6,6.7,1.5c1.6,0.9,2.4,2.3,2.4,3.8
			c0,2.6-3.4,3.5-3.6,3.2c-1.2-1.6-3.1-2.5-5.1-2.5c-3.3,0-5.8,2.5-5.8,6.3s2.3,6.2,5.5,6.2c2,0,3.6-0.9,4.1-2.2
			c0.1-0.2,0.1-0.5,0.2-0.8h-2.2c-2.3,0-3.3-0.5-3.3-2.5v-0.3c0-2,1.1-2.5,3.3-2.5h6.3V28.1z"/>
		<path d="M277.6,41.3c-2.3,0-3.6-1.3-3.6-3.9V22.2c0-2.6,1.3-4,3.6-4h12.2c2.3,0,3.3,0.9,3.3,2.7v0.2c0,2-1,2.7-3.3,2.7H281v3h5.8
			c2.3,0,3.3,0.7,3.3,2.5v0.1c0,1.9-1,2.7-3.3,2.7H281v3.4h8.9c2.2,0,3.3,0.7,3.3,2.6v0.2c0,2-1,2.9-3.3,2.9L277.6,41.3L277.6,41.3z
			"/>
	</g>
</g>
</svg>
