<?xml version="1.0" encoding="utf-8"?>
<!-- Generator: Adobe Illustrator 26.0.3, SVG Export Plug-In . SVG Version: 6.00 Build 0)  -->
<svg version="1.1" id="Layer_1" xmlns="http://www.w3.org/2000/svg" xmlns:xlink="http://www.w3.org/1999/xlink" x="0px" y="0px"
	 viewBox="0 0 512 359.1" style="enable-background:new 0 0 512 359.1;" xml:space="preserve">
<style type="text/css">
	.st0{fill:#D60C03;}
</style>
<g id="QCd2Tl.tif">
	<g>
		<path class="st0" d="M484.4,355.4c-3,1-7.2,2.3-11.4,3.7H39c-4.2-1.4-8.4-2.7-10.7-3.4c50.5-51.3,101.3-103.1,152.5-155.1
			c7.4,7.4,14.1,14.3,21,21c26.4,25.9,63.9,30.7,94.2,11.1c9.2-6,16.9-14.4,25-22c3.3-3.1,6-7,9.7-11.5
			C383,252.2,433.8,303.9,484.4,355.4z"/>
		<path class="st0" d="M156.3,179.6C106.9,229.8,56,281.6,4.5,334c-1.7-5.4-3.1-9.6-4.5-13.8V38.9c1.4-4.2,2.7-8.4,4.5-13.9
			C55.9,77.4,106.7,129.1,156.3,179.6z"/>
		<path class="st0" d="M512,38.9v281.2c-1.4,4.2-2.7,8.4-4.5,13.8c-51.5-52.4-102.3-104-151.9-154.5
			c49.4-50.2,100.3-102,151.9-154.4C509.3,30.5,510.6,34.7,512,38.9z"/>
		<path class="st0" d="M485.8,4.7c-1.2,1.2-2.3,2.5-3.5,3.8c-64,63.5-128,127.1-192.1,190.6c-16.9,16.7-37.3,20.1-56.8,9.1
			c-4-2.2-7.6-5.4-10.9-8.6C158,135.8,93.6,71.9,29.2,8c-1-1-2-2.2-4.2-4.7c8.2-1.2,15.2-3.1,22.1-3.1C82.3-0.1,117.4,0,152.6,0
			c103.7,0,207.3-0.1,311,0.1c7.3,0,14.7,1.8,22,2.8C485.6,3.5,485.7,4.1,485.8,4.7z"/>
	</g>
</g>
</svg>
