<?xml version="1.0" encoding="utf-8"?>
<!-- Generator: Adobe Illustrator 26.0.3, SVG Export Plug-In . SVG Version: 6.00 Build 0)  -->
<svg version="1.1" id="Layer_1" xmlns="http://www.w3.org/2000/svg" xmlns:xlink="http://www.w3.org/1999/xlink" x="0px" y="0px"
	 viewBox="0 0 480 478.8" style="enable-background:new 0 0 480 478.8;" xml:space="preserve">
<style type="text/css">
	.st0{fill:#D60C03;}
</style>
<g id="AMKs2Q.tif">
	<g>
		<path class="st0" d="M480,368.1v7c-3.9,10.1-10,18.8-17.5,26.3c-11.2,11.3-22.5,22.6-34.7,32.9c-20.3,17.2-41.1,33.8-65.8,44.5h-9
			c-4.5-0.9-9.1-1.7-13.6-2.6c-37-7.2-71.2-21.9-103.4-40.9c-66.3-39.1-121.5-90.6-166.7-152.7c-27-37-49-76.8-61.5-121.2
			C4.5,150,2.5,138.2,0,126.6v-10c18.6-36.2,44.3-66.9,73.1-95.2c6-5.9,13-10.8,19.8-16c10.5-8,21.2-6.5,31.5,0.4
			c3.3,2.2,6.5,4.9,8.8,8c22.1,30.9,43.2,62.3,59.2,96.9c2.3,5.1,4.1,10.5,5.8,15.9c3,9.3,1.2,18.1-5.5,25.1
			c-7.7,8.1-16.1,15.4-24.5,22.7c-11.1,9.7-11.4,9.6-5.7,23.1c25,58.3,67.1,98.9,126.3,122c5.1,2,8.1,1.7,11.7-2.8
			c7.1-9,14.9-17.5,22.7-25.9c9.9-10.7,21.7-13.2,35.5-8.1c19,7,36.5,16.9,53.6,27.5c15,9.3,29.4,19.5,44.3,28.9
			C467.8,346.1,476.7,354.8,480,368.1z"/>
	</g>
</g>
</svg>
