<?xml version="1.0" encoding="utf-8"?>
<!-- Generator: Adobe Illustrator 26.0.3, SVG Export Plug-In . SVG Version: 6.00 Build 0)  -->
<svg version="1.1" id="Layer_1" xmlns="http://www.w3.org/2000/svg" xmlns:xlink="http://www.w3.org/1999/xlink" x="0px" y="0px"
	 viewBox="0 0 512 327.9" style="enable-background:new 0 0 512 327.9;" xml:space="preserve">
<g id="fOAwJc.tif">
	<g>
		<path d="M214.3,209.1c-30.3,62-79.5,100.7-147.5,114.8c-12.3,2.5-25.1,3.1-37.7,3.8c-14.4,0.8-24.1-6.7-28.1-20.4
			c-0.3-0.9-0.7-1.8-1.1-2.7v-12c0.3-0.4,0.7-0.7,0.8-1.1c5.1-15.3,14.6-22.4,30.8-22.7c31.6-0.5,60.2-10.1,85.9-28.3
			c1.5-1.1,3-2.3,4.7-3.5c-9.8-1.4-19.3-2.1-28.4-4.2C41.8,221.2,3.2,174,2.1,121.5C1,66.1,35.9,18.6,88.4,4.2
			C154.8-14.1,222.6,29.3,233,97.3C238.9,136.4,231.5,173.9,214.3,209.1z"/>
		<path d="M512,107.2v24.9c-1.3,8.8-2.4,17.7-4,26.5c-13.6,79-78.1,146.8-156.6,163.7c-14.1,3-28.6,3.9-43,5.4
			c-20.2,2.1-30.5-12.6-31-28.4c-0.5-16.8,12.5-30.2,30.2-30.4c22.8-0.3,44.6-5,65-15.2c9.3-4.7,18-10.5,27-15.7
			c-0.2-0.5-0.4-1-0.5-1.5c-5.3-0.5-10.7-0.7-15.9-1.4c-54.4-7.5-95.6-47.8-102.7-102.3c-8.5-66.1,37.6-122.9,99-131.3
			c66-9.1,123.9,35.9,131.6,101.9C511.2,104.6,511.7,105.9,512,107.2z"/>
	</g>
</g>
</svg>
